Coordinates
version=1
nRows=17
nColumns=34
inDegrees=yes

Units are S.I. units (second, meters, Newtons, ...)
If the header above contains a line with 'inDegrees', this indicates whether rotational values are in degrees (yes) or radians (no).

endheader
time	pelvis_tilt	pelvis_list	pelvis_rotation	pelvis_tx	pelvis_ty	pelvis_tz	hip_flexion_r	hip_adduction_r	hip_rotation_r	knee_angle_r	ankle_angle_r	subtalar_angle_r	mtp_angle_r	hip_flexion_l	hip_adduction_l	hip_rotation_l	knee_angle_l	ankle_angle_l	subtalar_angle_l	mtp_angle_l	lumbar_extension	lumbar_bending	lumbar_rotation	arm_flex_r	arm_add_r	arm_rot_r	elbow_flex_r	pro_sup_r	arm_flex_l	arm_add_l	arm_rot_l	elbow_flex_l	pro_sup_l
     10.46666670	    -15.77690641	      0.26057710	     -4.38117811	     -0.13519048	      1.16874243	     -0.19707694	      8.72038664	      2.54912632	    -16.22236250	      0.00000000	      0.46080829	      8.09549478	      0.00000000	      8.62457363	      2.41228289	     -6.58638033	      0.00000000	     -0.66242161	      6.33088495	      0.00000000	     10.30785010	      0.74920995	      6.40076720	    139.00941225	    -11.27324652	     23.54542717	     78.97259800	     96.42331609	    146.44255087	    -13.61222430	     34.29903461	     72.96806397	     91.87497648
     10.48333330	    -15.57109492	      0.21037520	     -4.27923631	     -0.13796682	      1.16699637	     -0.19751471	      8.44875933	      2.54396300	    -16.17674243	      0.00000000	      0.65670865	      7.93241752	      0.00000000	      8.40225178	      2.43497914	     -6.44796741	      0.00000000	     -0.56801055	      6.33251197	      0.00000000	     10.20996811	      0.81693373	      6.38717966	    138.26369525	    -11.47826970	     23.80831444	     78.94061822	     96.71135557	    145.25103019	    -13.83100006	     35.71916461	     72.98335788	     92.16989885
     10.50000000	    -15.42549643	      0.16316834	     -4.25837415	     -0.13816238	      1.16420362	     -0.19737935	      8.30146494	      2.57621962	    -15.92615708	      0.00000000	      0.99935092	      7.78454135	      0.00000000	      8.29442483	      2.41783750	     -6.29245814	      0.00000000	     -0.41827343	      6.26206613	      0.00000000	     10.20138971	      0.89974783	      6.43709676	    137.37429336	    -11.73826861	     24.34861136	     78.89382160	     97.01430317	    144.01869215	    -14.22832775	     37.48764366	     72.93269801	     92.51280297
     10.51666670	    -15.37704259	      0.12715687	     -4.22799877	     -0.13634963	      1.16341038	     -0.19766648	      8.32054437	      2.60025726	    -15.54291865	      0.00000000	      1.25825787	      7.61928325	      0.00000000	      8.28320161	      2.35789412	     -6.09590920	      0.00000000	     -0.39440143	      6.26080980	      0.00000000	     10.37689170	      0.96058900	      6.26756379	    136.30051424	    -12.24937318	     25.19077269	     78.80490244	     97.46279571	    142.95226144	    -15.01916207	     39.71367453	     73.11023282	     93.01412966
     10.53333330	    -15.04313959	      0.02556551	     -4.15085311	     -0.13833774	      1.16146992	     -0.19860637	      7.96553361	      2.65226785	    -15.25338976	      0.00000000	      1.80100994	      7.36991043	      0.00000000	      7.95998788	      2.28567907	     -5.86166496	      0.00000000	     -0.06871797	      6.15258326	      0.00000000	     10.18575139	      1.06742851	      6.21913465	    135.33197085	    -12.67312059	     25.93126676	     78.45941718	     97.70290999	    141.37903039	    -15.49251861	     41.48311097	     72.94367027	     93.31424214
     10.55000000	    -15.00154275	     -0.03002998	     -4.13556505	     -0.13847041	      1.16528376	     -0.19947413	      8.01822414	      2.64046707	    -15.04325761	      0.00000000	      2.04423758	      7.06720057	      0.00000000	      7.93925847	      2.21496683	     -5.58109023	      0.00000000	      0.06945993	      6.22135496	      0.00000000	     10.40763168	      1.21163613	      6.03967589	    133.37670786	    -13.73317427	     27.24202416	     78.97579628	     98.07907148	    139.39547811	    -16.72847045	     43.88305519	     73.57621022	     93.79617917
     10.56666670	    -14.45239229	     -0.17446665	     -4.08245053	     -0.13694994	      1.16252111	     -0.19969446	      7.46315937	      2.70869948	    -14.83728791	      0.00000000	      2.59723150	      6.75116263	      0.00000000	      7.30595820	      2.11592966	     -5.11229623	      0.00000000	      0.50964372	      6.25093914	      0.00000000	      9.98510997	      1.39029896	      5.96356623	    131.63876045	    -14.58642929	     27.99523285	     79.20051347	     98.19971218	    137.00937200	    -17.53414063	     45.46051340	     73.82834008	     93.99201095
     10.58333330	    -14.56808422	     -0.25062003	     -4.12766183	     -0.13727161	      1.16288007	     -0.19978418	      7.67980912	      2.79397058	    -14.44384612	      0.00000000	      2.89191898	      6.52005021	      0.00000000	      7.38833666	      2.02973643	     -4.88038934	      0.00000000	      0.90847227	      6.23809210	      0.00000000	     10.55494641	      1.49004879	      5.61224611	    129.18045011	    -15.78515560	     29.48097270	     80.14617831	     98.44653747	    134.28209757	    -18.83177001	     47.92168466	     74.63602159	     94.37764820
     10.60000000	    -14.36702366	     -0.33607172	     -4.11807675	     -0.13580587	      1.16198433	     -0.19856853	      7.46296740	      2.86362236	    -14.13871449	      0.00000000	      3.18907371	      6.12032150	      0.00000000	      7.06655530	      1.95186537	     -4.57638831	      0.00000000	      1.31891056	      6.20308782	      0.00000000	     10.71814629	      1.57287391	      5.49481628	    126.89683101	    -17.07258645	     30.50795549	     81.13190481	     98.63977258	    131.38421278	    -20.20048229	     50.71609224	     75.08432717	     94.77454963
     10.61666670	    -14.15784965	     -0.40976936	     -4.10648344	     -0.13971041	      1.16080422	     -0.19956838	      7.27772307	      2.92037409	    -13.82605645	      0.00000000	      3.52851411	      5.69017316	      0.00000000	      6.82404155	      1.90411587	     -4.28295022	      0.00000000	      1.76446899	      6.02236656	      0.00000000	     10.79155691	      1.65296395	      5.35502513	    124.40794388	    -18.48769374	     31.69836494	     81.92267578	     98.78389796	    128.37543625	    -21.60011492	     53.54314784	     75.02031315	     95.08058343
     10.63333330	    -14.01673154	     -0.43341977	     -3.91801331	     -0.13768506	      1.15597163	     -0.20104165	      7.14148161	      2.90358456	    -13.57359203	      0.00000000	      4.02259859	      5.09214699	      0.00000000	      6.63363165	      1.93437516	     -3.90090286	      0.00000000	      2.08434152	      5.85649235	      0.00000000	     10.93278996	      1.64195004	      5.12784740	    122.26652102	    -20.02545626	     32.88127652	     82.72726594	     98.85348895	    125.71249920	    -22.71604627	     56.66172375	     74.66694101	     95.32501605
     10.65000000	    -13.70505169	     -0.49378141	     -3.76482823	     -0.13340817	      1.16219399	     -0.20294946	      6.78987373	      2.88943872	    -13.42359598	      0.00000000	      4.20415702	      4.81659363	      0.00000000	      6.20740812	      1.90933043	     -3.73251936	      0.00000000	      2.42466520	      5.72829654	      0.00000000	     11.14162077	      1.69871510	      4.74358071	    118.81670529	    -21.81808683	     34.35788860	     83.89732020	     98.84226178	    121.94860996	    -24.16424769	     58.46806804	     75.20324542	     95.34645894
     10.66666670	    -13.51243984	     -0.54270692	     -3.62582730	     -0.13385174	      1.16121135	     -0.20277004	      6.56689550	      2.88241949	    -13.28560719	      0.00000000	      4.39389838	      4.46651428	      0.00000000	      5.90585836	      1.88405314	     -3.57079285	      0.00000000	      2.64455717	      5.54853358	      0.00000000	     11.52587020	      1.77463284	      4.23657416	    114.91327139	    -23.50375487	     35.59438930	     85.72270686	     98.69590368	    117.32342232	    -25.82640578	     60.13479983	     75.83098454	     95.26319371
     10.68333330	    -13.00603459	     -0.61298384	     -3.48408886	     -0.13871058	      1.15190956	     -0.20253677	      6.15405020	      2.88751687	    -13.09469383	      0.11091477	      4.97618564	      4.04233265	      0.00000000	      5.34540098	      1.88842239	     -3.37914836	      0.00000000	      2.92020517	      5.33968198	      0.00000000	     11.15768476	      1.78894149	      3.76703036	    111.68898700	    -25.01248733	     36.86430674	     86.25621931	     98.64584165	    113.32134562	    -27.31886232	     61.55835781	     75.72726058	     95.22911508
     10.70000000	    -13.21297588	     -0.66902421	     -3.38203854	     -0.13676778	      1.14735635	     -0.20388394	      6.56638430	      2.90927515	    -12.61830074	      0.35263113	      5.52143164	      3.19658860	      0.00000000	      5.53250302	      1.86240841	     -2.85981594	      0.00000000	      3.02542928	      4.81109342	      0.00000000	     12.04932316	      1.88667225	      4.07412358	    107.38391454	    -27.70687558	     38.48872247	     87.62565950	     97.78307878	    107.39528208	    -28.79362631	     59.91806183	     76.67008327	     94.22542212
     10.71666670	    -13.03145732	     -0.71664061	     -3.36151485	     -0.13571192	      1.14970578	     -0.20328461	      6.42745525	      2.90692094	    -12.42003478	      0.62652780	      5.99506004	      2.68464339	      0.00000000	      5.27620453	      1.84526467	     -2.72657093	      0.00000000	      3.35741439	      4.64050443	      0.00000000	     12.54849959	      1.97340999	      4.24675352	    101.94524955	    -30.20365869	     39.74189708	     89.52062822	     96.87071666	    100.22818414	    -30.79181167	     58.01325404	     78.60739330	     93.33958896
     10.73333330	    -12.99073011	     -0.70526354	     -3.39027873	     -0.13709532	      1.15188296	     -0.20352940	      6.46809469	      2.87296131	    -12.12914142	      0.92501032	      6.38965044	      2.19951251	      0.00000000	      5.17630240	      1.89526032	     -2.54948035	      0.00000000	      3.53996457	      4.32501548	      0.00000000	     13.12182364	      2.06223957	      4.14662767	     95.66575432	    -32.16754386	     40.93766663	     90.02385524	     95.78518618	     91.40567911	    -32.19473741	     54.99943078	     79.00048774	     92.26766779
